# xmcd
#
# Track frame offsets: 
#        150
#        17714
#        33504
#        55713
#        69788
#        81028
#        108070
#        127114
#        145279
#        166297
#        183898
#        197122
#        219401
#
# Disc length: 3139 seconds
#
# Revision: 0
# Processed by: cddbd v1.5.2PL0 Copyright (c) Steve Scherf et al.
# Submitted via: ExactAudioCopy v1.1
#
DISCID=aa0c410d
DTITLE=3GB2 - Must be Something in The Water
DYEAR=2014
DGENRE=Blues Rock
TTITLE0=Blind Me
TTITLE1=That's My Rock On Your Window
TTITLE2=My Woman's an Alcoholic
TTITLE3=Lie to Your Baby
TTITLE4=Ain't That Just Like a Man
TTITLE5=Poor, Good Looking Woman
TTITLE6=Wait a Cotton Pickin' Minute
TTITLE7=I Fell in Love, She Fell Asleep
TTITLE8=Rich, Mean Old Husband
TTITLE9=She's Got This Thing
TTITLE10=I'm Going Back
TTITLE11=Must Be Something in the Water
TTITLE12=Next Time You See Me (Bonus Track) [feat. Dee Fisk Martin]
EXTD=
EXTT0=
EXTT1=
EXTT2=
EXTT3=
EXTT4=
EXTT5=
EXTT6=
EXTT7=
EXTT8=
EXTT9=
EXTT10=
EXTT11=
EXTT12=
PLAYORDER=
